<?xml version="1.0" encoding="UTF-8" standalone="no"?>
<!DOCTYPE svg PUBLIC "-//W3C//DTD SVG 1.1//EN" "http://www.w3.org/Graphics/SVG/1.1/DTD/svg11.dtd">
<svg width="100%" height="100%" viewBox="0 0 512 512" version="1.1" xmlns="http://www.w3.org/2000/svg" xmlns:xlink="http://www.w3.org/1999/xlink" xml:space="preserve" xmlns:serif="http://www.serif.com/" style="fill-rule:evenodd;clip-rule:evenodd;stroke-linejoin:round;stroke-miterlimit:2;">
    <path d="M68.441,146.557L68.441,62.182L52.493,62.182C46.297,62.182 41.274,67.205 41.274,73.401L41.274,146.557" style="fill:rgb(209,209,209);fill-rule:nonzero;"/>
    <path d="M512,159.89L512,433.601C512,452.367 496.786,467.581 478.02,467.581L33.98,467.581C15.214,467.581 0,452.367 0,433.601L0,159.89C0,141.124 15.214,125.91 33.98,125.91L101.17,125.91C115.642,125.91 128.536,116.746 133.28,103.069L145.683,67.271C150.427,53.593 163.31,44.419 177.793,44.419L376.007,44.419C390.479,44.419 403.362,53.593 408.106,67.271L420.519,103.069C425.263,116.747 438.146,125.91 452.618,125.91L478.019,125.91C496.786,125.91 512,141.124 512,159.89Z" style="fill:rgb(65,68,136);fill-rule:nonzero;"/>
    <g>
        <path d="M60.625,467.581L33.98,467.581C15.214,467.581 0,452.367 0,433.601L0,159.89C0,141.124 15.214,125.91 33.98,125.91L58.514,125.91L58.514,125.973C40.73,127.07 26.645,141.835 26.645,159.89L26.645,433.601C26.645,452.368 41.859,467.581 60.625,467.581Z" style="fill:rgb(51,54,110);fill-rule:nonzero;"/>
        <path d="M204.437,44.419C189.955,44.419 177.071,53.593 172.327,67.271L159.924,103.069C155.18,116.747 142.286,125.91 127.814,125.91L105.014,125.91L105.014,125.691C117.887,124.228 128.963,115.524 133.278,103.069L145.681,67.271C150.425,53.593 163.308,44.419 177.791,44.419L204.437,44.419Z" style="fill:rgb(51,54,110);fill-rule:nonzero;"/>
    </g>
    <circle cx="256" cy="294.139" r="141.573" style="fill:rgb(229,233,234);"/>
    <path d="M356.101,294.139C356.101,323.616 343.364,350.114 323.082,368.442C305.33,384.481 281.819,394.25 256,394.25C230.191,394.25 206.67,384.48 188.918,368.441C168.637,350.124 155.889,323.615 155.889,294.138C155.889,264.661 168.637,238.152 188.918,219.846C206.671,203.796 230.191,194.037 256,194.037C281.819,194.037 305.33,203.807 323.082,219.846C343.364,238.164 356.101,264.662 356.101,294.139Z" style="fill:rgb(86,99,104);fill-rule:nonzero;"/>
    <g>
        <path d="M326.777,223.354C347.62,244.197 357.351,271.941 355.969,299.242C328.668,300.623 300.924,290.893 280.081,270.05C259.238,249.207 249.507,221.463 250.896,194.17C278.189,192.781 305.934,202.512 326.777,223.354Z" style="fill:rgb(111,123,127);fill-rule:nonzero;"/>
        <path d="M231.908,318.224C252.751,339.067 262.482,366.811 261.1,394.112C233.806,395.501 206.047,385.771 185.205,364.927C164.362,344.084 154.631,316.325 156.027,289.039C183.321,287.649 211.065,297.38 231.908,318.224Z" style="fill:rgb(111,123,127);fill-rule:nonzero;"/>
    </g>
    <g>
        <path d="M255.997,402.082C196.478,402.082 148.055,353.659 148.055,294.14C148.055,234.621 196.478,186.198 255.997,186.198C315.516,186.198 363.939,234.62 363.939,294.14C363.939,353.66 315.516,402.082 255.997,402.082ZM255.997,201.871C205.12,201.871 163.728,243.263 163.728,294.14C163.728,345.017 205.12,386.409 255.997,386.409C306.874,386.409 348.266,345.017 348.266,294.14C348.266,243.263 306.874,201.871 255.997,201.871Z" style="fill:rgb(67,80,84);fill-rule:nonzero;"/>
        <path d="M255.997,253.955C233.839,253.955 215.812,271.982 215.812,294.141C215.812,316.3 233.839,334.326 255.997,334.326C278.155,334.326 296.182,316.299 296.182,294.141C296.182,271.983 278.155,253.955 255.997,253.955Z" style="fill:rgb(67,80,84);fill-rule:nonzero;"/>
    </g>
    <path d="M306.857,118.078L368.44,118.078C376.536,118.078 383.1,111.515 383.1,103.418L383.1,87.286C383.1,79.19 376.537,72.626 368.44,72.626L306.857,72.626C298.761,72.626 292.197,79.189 292.197,87.286L292.197,103.418C292.197,111.514 298.761,118.078 306.857,118.078Z" style="fill:rgb(229,233,234);fill-rule:nonzero;"/>
    <circle cx="97.332" cy="410.237" r="28.338" style="fill:rgb(86,99,104);"/>
</svg>
