<?xml version="1.0" encoding="UTF-8" standalone="no"?>
<!DOCTYPE svg PUBLIC "-//W3C//DTD SVG 1.1//EN" "http://www.w3.org/Graphics/SVG/1.1/DTD/svg11.dtd">
<svg width="100%" height="100%" viewBox="0 0 563 179" version="1.1" xmlns="http://www.w3.org/2000/svg" xmlns:xlink="http://www.w3.org/1999/xlink" xml:space="preserve" xmlns:serif="http://www.serif.com/" style="fill-rule:evenodd;clip-rule:evenodd;stroke-linejoin:round;stroke-miterlimit:2;">
    <g id="Artboard1" transform="matrix(1,0,0,0.950147,-160.365,-151.413)">
        <rect x="160.365" y="159.357" width="562.518" height="187.414" style="fill:none;"/>
        <g id="Layer-1" serif:id="Layer 1" transform="matrix(1,0,0,1.05247,0.365454,-17.8187)">
            <g>
                <g transform="matrix(1,0,0,1,331.666,257.865)">
                    <path d="M0,-0.006C0,43.518 -35.412,78.931 -78.937,78.931C-87.789,78.931 -96.312,77.465 -104.264,74.765C-109.092,73.125 -113.711,71.027 -118.068,68.529L-109.533,56.226L-57.407,-18.919L-63.135,-18.883L-113.58,53.825L-122.074,66.074C-126.252,63.338 -130.163,60.209 -133.739,56.751L-125.167,44.246L-125.126,44.181L-81.369,-18.902L-78.126,-23.473L-71.021,-33.821L-28.933,-33.821L-95.334,61.895C-90.101,63.29 -84.605,64.029 -78.937,64.029C-43.626,64.029 -14.901,35.299 -14.901,-0.006C-14.901,-35.311 -43.626,-64.035 -78.937,-64.035C-99.978,-64.035 -118.683,-53.831 -130.354,-38.112L-148.039,-38.112C-134.58,-62.432 -108.651,-78.937 -78.937,-78.937C-35.412,-78.937 0,-43.531 0,-0.006" style="fill:rgb(67,103,177);fill-rule:nonzero;"/>
                </g>
                <g transform="matrix(1,0,0,1,188.7,277.38)">
                    <path d="M0,-19.521C0,-26.102 0.996,-32.456 2.855,-38.434L37.874,-38.434L5.997,7.517C2.152,-0.697 0,-9.865 0,-19.521M56.012,-38.434L66.348,-53.336L-7.284,-53.336C-7.987,-51.87 -8.637,-50.374 -9.245,-48.859C-9.751,-47.607 -10.222,-46.338 -10.664,-45.051C-11.409,-42.887 -12.058,-40.675 -12.606,-38.434C-14.109,-32.372 -14.901,-26.036 -14.901,-19.521C-14.901,-4.613 -10.747,9.346 -3.535,21.256C-0.811,25.756 2.354,29.958 5.889,33.815L14.646,21.196L56.012,-38.434Z" style="fill:rgb(87,88,91);fill-rule:nonzero;"/>
                </g>
            </g>
            <g transform="matrix(1,0,0,1,0,6.23199)">
                <g transform="matrix(1,0,0,1,-72.537,13.4491)">
                    <text x="418.733px" y="238.063px" style="font-family:'Saira-ExtraLight', 'Saira';font-weight:275;font-size:54px;fill:rgb(64,64,64);">D<tspan x="466.037px 508.373px 558.107px 617.345px 659.681px 706.553px 747.647px " y="238.063px 238.063px 238.063px 238.063px 238.063px 238.063px 238.063px ">ENMERCS</tspan></text>
                </g>
                <g transform="matrix(1,0,0,1,-25.0018,-31.8281)">
                    <text x="373.862px" y="320.953px" style="font-family:'Saira-ExtraLight', 'Saira';font-weight:275;font-size:26px;fill:rgb(64,64,64);">P<tspan x="406.96px 442.216px 477.134px 508.36px 543.278px 577.078px 610.956px 644.808px 677.906px 713.162px " y="320.953px 320.953px 320.953px 320.953px 320.953px 320.953px 320.953px 320.953px 320.953px 320.953px ">HOTOGRAPHY</tspan></text>
                </g>
            </g>
        </g>
    </g>
</svg>
